<svg viewBox="0 0 600 380" xmlns="http://www.w3.org/2000/svg"><defs><radialGradient id="rg" cx="25%" cy="25%" r="55%"><stop offset="0%" stop-color="#C0392B" stop-opacity="0.2"/><stop offset="100%" stop-color="#C0392B" stop-opacity="0"/></radialGradient></defs><rect width="600" height="380" fill="#08080E"/><rect width="600" height="380" fill="url(#rg)"/><line x1="0" y1="190" x2="600" y2="190" stroke="rgba(255,255,255,0.03)" stroke-width="1"/><line x1="300" y1="0" x2="300" y2="380" stroke="rgba(255,255,255,0.03)" stroke-width="1"/><g transform="translate(268,105)" opacity="0.55"><path d="M32 0 C32 0 50 22 44 44 C62 28 68 8 56 -12 C80 12 80 52 58 72 C72 60 72 80 58 92 C58 116 36 128 8 128 C-20 128 -42 116 -42 92 C-56 80 -56 60 -42 72 C-64 52 -64 12 -40 -12 C-52 8 -46 28 -28 44 C-34 22 -16 0 8 0 C16 14 24 24 32 0Z" fill="#C0392B"/></g><text x="300" y="278" font-family="Inter,Arial,sans-serif" font-size="21" font-weight="700" fill="#F0F0F5" text-anchor="middle" letter-spacing="-0.5">Vidal Extintores</text><text x="300" y="304" font-family="Inter,Arial,sans-serif" font-size="12.5" font-weight="500" fill="rgba(240,240,245,0.42)" text-anchor="middle">Coyoacán · Sur CDMX</text><rect x="222" y="323" width="156" height="22" rx="4" fill="rgba(192,57,43,0.1)" stroke="rgba(192,57,43,0.25)" stroke-width="1"/><text x="300" y="338" font-family="Inter,Arial,sans-serif" font-size="9.5" font-weight="700" fill="#E05040" text-anchor="middle" letter-spacing="1.2">EQUIPOS CONTRA INCENDIO</text></svg>
